<svg width="300" height="240" viewBox="0 0 300 240" fill="none" xmlns="http://www.w3.org/2000/svg">
<ellipse cx="150" cy="220" rx="150" ry="20" fill="#D2E8F6"/>
<g clip-path="url(#clip0_61_1577)">
<path d="M101.191 208.188C98.9192 208.188 96.2923 208.047 93.6655 207.2C90.1867 206 87.4888 203.671 86.2109 200.635C84.933 197.459 85.288 193.647 87.2758 190.188C88.8377 187.506 90.9676 185.53 92.8845 183.765L94.7304 182.071C96.2923 180.588 98.7772 180.659 100.268 182.283C101.759 183.835 101.617 186.306 100.055 187.788L98.2092 189.483C96.6473 190.965 95.0144 192.447 94.0914 194.071C93.3105 195.412 93.0975 196.824 93.4525 197.741C93.8075 198.588 94.8014 199.435 96.1503 199.859C97.8542 200.424 99.9131 200.424 101.688 200.424C105.877 200.424 110.066 199.788 114.538 199.153C122.135 198.094 129.944 197.035 137.683 198.73C139.813 199.224 141.091 201.271 140.665 203.388C140.168 205.506 138.109 206.777 135.979 206.353C129.589 204.941 122.774 205.859 115.603 206.847C111.059 207.483 106.374 208.118 101.688 208.188C101.546 208.188 101.333 208.188 101.191 208.188Z" fill="#161A1E"/>
<path d="M164.164 205.647C162.034 205.647 160.331 203.953 160.26 201.906C160.189 199.788 161.892 197.953 164.022 197.882L189.297 197.177C192.208 197.106 195.19 197.035 197.816 196.259C200.301 195.553 202.218 194.212 203.141 192.588C203.993 191.177 203.922 189.2 203.07 188.282C202.289 187.435 200.656 186.871 199.236 186.377L190.078 183.2C188.019 182.494 186.954 180.306 187.664 178.259C188.374 176.212 190.575 175.153 192.634 175.859L201.792 179.035C203.851 179.741 206.691 180.73 208.821 182.988C212.016 186.518 212.513 192.024 209.886 196.471C207.898 199.859 204.419 202.4 199.946 203.671C196.396 204.73 192.705 204.8 189.439 204.871L164.164 205.577C164.235 205.647 164.235 205.647 164.164 205.647Z" fill="#161A1E"/>
<path d="M144.922 198.518C147.194 198.447 149.111 201.906 148.33 204.659L143.644 221.953C143.218 223.506 142.082 224.282 140.804 223.929C137.609 223.082 135.124 218.706 135.479 214.471L136.118 207.553L129.232 207.694C128.238 207.694 127.315 206.212 127.599 204.941L129.161 197.106C129.232 196.682 129.516 196.4 129.871 196.471L144.922 198.518Z" fill="#161A1E"/>
<path d="M141.8 200.282C141.587 199.506 141.516 198.729 141.445 198.024L144.853 198.518C147.125 198.447 149.042 201.906 148.261 204.659L147.764 206.424C145.279 206.424 142.723 203.882 141.8 200.282Z" fill="#161A1E"/>
<path d="M154.366 198.518C152.094 198.447 150.178 201.906 150.959 204.659L155.644 221.882C156.07 223.435 157.206 224.212 158.484 223.859C161.679 223.012 164.164 218.635 163.809 214.4L163.17 207.482L170.056 207.624C171.05 207.624 171.973 206.141 171.689 204.871L170.127 197.035C170.056 196.612 169.772 196.33 169.417 196.4L154.366 198.518Z" fill="#161A1E"/>
<path d="M157.489 200.282C157.702 199.506 157.773 198.729 157.844 198.024L154.437 198.518C152.165 198.447 150.248 201.906 151.029 204.659L151.526 206.424C153.94 206.424 156.567 203.882 157.489 200.282Z" fill="#161A1E"/>
<path d="M49.364 115.012C48.5121 113.035 46.1692 112.118 44.1813 113.035C43.8974 113.177 43.4004 113.247 42.6904 113.177C42.3354 113.106 41.9095 113.035 41.4835 112.965C41.0575 112.894 40.5605 112.753 40.1346 112.612C38.2887 112.118 36.5138 111.412 34.8099 110.635C33.106 109.788 31.5441 108.8 30.0532 107.671C29.0592 106.894 28.1363 105.977 27.2843 105.059C29.4142 102.729 29.7692 99.1295 28.1363 96.5177C27.4263 95.3883 25.8644 95.0353 24.7285 95.7412C23.5925 96.4471 23.2376 98.0001 23.9475 99.1295C24.4445 99.8353 24.2315 101.106 23.5215 101.812C22.7406 102.588 21.3917 102.941 20.1847 102.588C18.9068 102.235 17.7709 101.318 16.9899 99.9765C16.28 98.6353 15.996 97.2236 16.351 95.953C16.7059 94.6824 17.6289 93.6942 18.6938 93.3412C19.2618 93.1295 19.9007 93.2001 20.0427 93.4118C20.9657 94.4001 22.5276 94.4706 23.5215 93.553C24.5155 92.6353 24.5865 91.0824 23.6635 90.0942C22.1016 88.4001 19.5458 87.8353 17.0609 88.6824C15.428 89.2471 14.0081 90.2353 13.0141 91.6471C12.6592 89.7412 12.5172 87.6942 12.3752 85.5765C12.3042 84.3765 11.2392 83.5295 10.1033 83.6001C8.89638 83.6706 8.04443 84.6589 8.11543 85.8589C8.25742 88.3295 8.47041 91.3648 9.18037 94.3295C9.03837 94.1177 8.96738 93.9765 8.82539 93.7648C7.83144 92.1412 7.12149 89.8824 7.05049 88.1883C6.97949 86.9883 5.98555 86.1412 4.84962 86.2118C3.85567 86.0706 2.93273 87.0589 3.00372 88.2589C3.14572 90.6589 4.06866 93.6236 5.41758 95.8118C6.8375 98.1412 10.6003 103.718 15.144 105.271C16.28 106.259 17.5579 106.965 18.9778 107.318C19.6878 107.529 20.4687 107.6 21.1787 107.6C21.3207 107.6 21.5336 107.6 21.6756 107.6C22.8826 109.294 24.2315 110.918 25.7934 112.4C27.4973 114.024 29.4142 115.435 31.4731 116.635C33.5319 117.835 35.6618 118.824 37.7917 119.6C38.3597 119.812 38.8566 119.953 39.4246 120.165C39.9926 120.377 40.6315 120.518 41.3415 120.659C42.6904 120.941 44.3943 121.012 46.1692 120.588L46.5952 120.447C46.8082 120.377 46.9502 120.306 47.1632 120.235C49.293 119.318 50.216 116.988 49.364 115.012Z" fill="#161A1E"/>
<path d="M294.018 86.5648C292.812 86.4943 291.818 87.4119 291.818 88.5413C291.747 90.2354 290.966 92.5648 290.043 94.1178C289.901 94.3296 289.83 94.4707 289.688 94.6825C290.398 91.7178 290.611 88.7531 290.753 86.2119C290.824 85.0119 289.972 84.0237 288.765 83.9531C287.629 83.8825 286.564 84.7296 286.493 85.9296C286.351 88.0472 286.209 90.0943 285.854 92.0001C284.789 90.659 283.369 89.6001 281.807 89.0354C279.393 88.259 276.766 88.8237 275.205 90.4472C274.282 91.4354 274.353 92.9884 275.347 93.906C276.34 94.8237 277.902 94.7531 278.825 93.7648C279.038 93.5531 279.606 93.4825 280.174 93.6943C281.239 94.0472 282.162 95.106 282.517 96.306C282.872 97.5766 282.659 99.059 281.878 100.33C281.168 101.6 279.961 102.588 278.683 102.941C277.476 103.294 276.128 102.941 275.347 102.165C274.637 101.459 274.495 100.259 274.921 99.4825C275.631 98.3531 275.276 96.8001 274.14 96.0943C273.004 95.3884 271.442 95.7413 270.732 96.8707C269.099 99.4119 269.454 103.012 271.584 105.412C270.732 106.33 269.809 107.247 268.815 108.024C267.324 109.224 265.762 110.212 264.058 110.988C262.354 111.835 260.579 112.471 258.734 112.965C258.308 113.106 257.811 113.247 257.385 113.318C256.959 113.388 256.533 113.459 256.178 113.53C255.468 113.6 254.971 113.53 254.687 113.388C254.474 113.318 254.261 113.247 254.119 113.177C251.989 112.612 249.859 113.882 249.291 116C248.723 118.118 250.001 120.235 252.131 120.8L252.557 120.941C254.332 121.435 256.036 121.294 257.385 121.012C258.095 120.871 258.734 120.73 259.301 120.518C259.94 120.306 260.437 120.165 260.934 119.953C263.135 119.177 265.265 118.188 267.253 116.988C269.312 115.788 271.229 114.377 272.933 112.753C274.495 111.271 275.844 109.718 277.05 107.953C277.192 107.953 277.405 107.953 277.547 107.953C278.257 107.953 279.038 107.882 279.748 107.671C281.168 107.318 282.446 106.612 283.582 105.624C288.126 104.071 291.889 98.4943 293.309 96.1648C294.657 93.9766 295.58 91.0119 295.722 88.6119C296.077 87.5531 295.154 86.5648 294.018 86.5648Z" fill="#161A1E"/>
<path d="M149.185 32.5C161.898 32.5 172.804 40.1389 177.911 51.1279L178.129 51.5967L178.59 51.3643C182.852 49.2108 187.603 48.0293 192.635 48.0293C209.189 48.0295 222.826 61.0882 224.155 77.71L224.188 78.1084L224.582 78.165C241.95 80.6717 255.392 95.6433 255.392 113.529V116.755L255.784 116.841C267.421 119.404 276.263 129.797 276.193 142.115V143.105C276.193 157.368 264.493 169.006 250.142 169.006H230.359L230.229 169.308C225.495 180.245 212.848 188.136 197.888 188.136C189.398 188.136 181.619 185.553 175.6 181.309L175.216 181.038L174.922 181.404C168.779 189.039 158.279 194.064 146.345 194.064C135.396 194.064 125.662 189.807 119.374 183.208L119.104 182.926L118.766 183.118C113.232 186.252 106.501 188.136 99.2744 188.136C84.3146 188.136 71.6683 180.245 66.9336 169.308L66.8027 169.006H46.9512C32.5994 169.006 20.8984 157.368 20.8984 143.105V142.117C20.8987 129.796 29.6726 119.405 41.3779 116.842L41.7715 116.755V113.529C41.7715 96.6179 53.7423 82.3432 69.7109 78.6523L70.0742 78.5684L70.0977 78.1953C71.147 61.2962 84.9237 47.9591 101.688 47.959C108.045 47.959 113.984 49.9033 118.945 53.2383L119.467 53.5889L119.691 53.0029C124.307 40.9742 135.771 32.5002 149.185 32.5Z" fill="white" stroke="black"/>
<path d="M102.184 96.9412C103.178 97.0118 104.171 96.5883 105.236 96.2354C106.301 95.8118 107.366 95.4589 108.289 95.1765C109.212 94.8942 110.277 94.5412 111.413 94.2589C112.478 93.9765 113.614 93.6942 114.324 93.0589C115.034 92.4942 115.034 91.3648 113.685 90.5177C112.407 89.6707 109.709 89.1059 106.585 90.0942C103.461 91.0824 101.616 93.0589 101.119 94.5412C100.622 96.0236 101.261 96.8706 102.184 96.9412Z" fill="#161A1E"/>
<path d="M194.765 98.1412C193.771 98.1412 192.777 97.5765 191.783 97.0824C190.789 96.5883 189.795 96.0941 188.872 95.6706C187.949 95.2471 186.955 94.8941 185.89 94.4706C184.825 94.0471 183.76 93.6941 183.121 92.9883C182.482 92.353 182.624 91.2941 184.044 90.5177C185.393 89.8118 188.162 89.5294 191.144 90.8706C194.126 92.2118 195.758 94.3294 196.113 95.8118C196.468 97.3647 195.687 98.1412 194.765 98.1412Z" fill="#161A1E"/>
<path d="M172.041 111.765C172.396 111.835 172.751 111.976 173.035 112.259C183.258 121.012 192.629 116.353 192.7 116.282C193.765 115.718 194.972 116.141 195.54 117.2C196.108 118.259 195.682 119.459 194.617 120.024C194.12 120.306 182.619 126.094 170.195 115.435C169.343 114.659 169.201 113.388 169.982 112.471C170.55 111.906 171.26 111.624 172.041 111.765Z" fill="#161A1E"/>
<path d="M103.174 115.435C103.529 115.365 103.884 115.435 104.239 115.577C116.805 120.518 124.118 112.965 124.189 112.894C124.97 112.047 126.319 112.047 127.171 112.824C128.023 113.6 128.094 114.941 127.242 115.788C126.887 116.212 117.87 125.459 102.677 119.459C101.612 119.035 101.044 117.835 101.47 116.777C101.825 116.071 102.464 115.577 103.174 115.435Z" fill="#161A1E"/>
<path d="M148.118 129.059C141.658 129.059 137.185 126.306 137.114 126.236C136.759 126.024 136.688 125.6 136.901 125.247C137.114 124.894 137.54 124.824 137.895 125.036C137.966 125.106 147.834 131.106 159.265 124.541C159.62 124.33 160.046 124.471 160.259 124.824C160.472 125.177 160.33 125.6 159.975 125.812C155.715 128.212 151.597 129.059 148.118 129.059Z" fill="#161A1E"/>
<path d="M134.058 128.141C133.774 128.141 133.49 127.93 133.348 127.647C133.207 127.294 133.419 126.871 133.845 126.73C135.265 126.306 136.827 124.894 137.537 123.271C137.963 122.424 138.318 121.082 137.75 119.741C137.608 119.388 137.75 118.965 138.105 118.824C138.46 118.682 138.886 118.824 139.028 119.177C139.667 120.659 139.596 122.212 138.815 123.835C137.892 125.812 136.046 127.435 134.271 128C134.2 128.071 134.129 128.141 134.058 128.141Z" fill="#161A1E"/>
<path d="M163.448 128.141C163.377 128.141 163.306 128.141 163.235 128.141C161.389 127.577 159.614 125.883 158.691 123.977C157.91 122.353 157.839 120.8 158.478 119.318C158.62 118.965 159.046 118.753 159.401 118.965C159.756 119.106 159.969 119.53 159.756 119.883C159.188 121.224 159.543 122.565 159.969 123.412C160.679 124.965 162.241 126.447 163.661 126.871C164.016 127.012 164.229 127.365 164.158 127.788C164.016 127.93 163.732 128.141 163.448 128.141Z" fill="#161A1E"/>
<circle cx="86" cy="136" r="10" fill="#161A1E"/>
<circle cx="210" cy="136" r="10" fill="#161A1E"/>
</g>
<circle cx="78" cy="41" r="7" fill="#161A1E"/>
<circle cx="199" cy="4" r="4" fill="#161A1E"/>
<defs>
<clipPath id="clip0_61_1577">
<rect width="293" height="192" fill="white" transform="translate(3 32)"/>
</clipPath>
</defs>
</svg>
