<svg width="293" height="224" viewBox="0 0 293 224" fill="none" xmlns="http://www.w3.org/2000/svg">
<g clip-path="url(#clip0_61_1579)">
<path d="M98.191 208.188C95.9192 208.188 93.2923 208.047 90.6655 207.2C87.1867 206 84.4888 203.671 83.2109 200.635C81.933 197.459 82.288 193.647 84.2758 190.188C85.8377 187.506 87.9676 185.53 89.8845 183.765L91.7304 182.071C93.2923 180.588 95.7772 180.659 97.2681 182.283C98.759 183.835 98.617 186.306 97.0551 187.788L95.2092 189.483C93.6473 190.965 92.0144 192.447 91.0914 194.071C90.3105 195.412 90.0975 196.824 90.4525 197.741C90.8075 198.588 91.8014 199.435 93.1503 199.859C94.8542 200.424 96.9131 200.424 98.688 200.424C102.877 200.424 107.066 199.788 111.538 199.153C119.135 198.094 126.944 197.035 134.683 198.73C136.813 199.224 138.091 201.271 137.665 203.388C137.168 205.506 135.109 206.777 132.979 206.353C126.589 204.941 119.774 205.859 112.603 206.847C108.059 207.483 103.374 208.118 98.688 208.188C98.546 208.188 98.333 208.188 98.191 208.188Z" fill="#161A1E"/>
<path d="M161.164 205.647C159.034 205.647 157.331 203.953 157.26 201.906C157.189 199.788 158.892 197.953 161.022 197.882L186.297 197.177C189.208 197.106 192.19 197.035 194.816 196.259C197.301 195.553 199.218 194.212 200.141 192.588C200.993 191.177 200.922 189.2 200.07 188.282C199.289 187.435 197.656 186.871 196.236 186.377L187.078 183.2C185.019 182.494 183.954 180.306 184.664 178.259C185.374 176.212 187.575 175.153 189.634 175.859L198.792 179.035C200.851 179.741 203.691 180.73 205.821 182.988C209.016 186.518 209.513 192.024 206.886 196.471C204.898 199.859 201.419 202.4 196.946 203.671C193.396 204.73 189.705 204.8 186.439 204.871L161.164 205.577C161.235 205.647 161.235 205.647 161.164 205.647Z" fill="#161A1E"/>
<path d="M141.922 198.518C144.194 198.447 146.111 201.906 145.33 204.659L140.644 221.953C140.218 223.506 139.082 224.282 137.804 223.929C134.609 223.082 132.124 218.706 132.479 214.471L133.118 207.553L126.232 207.694C125.238 207.694 124.315 206.212 124.599 204.941L126.161 197.106C126.232 196.682 126.516 196.4 126.871 196.471L141.922 198.518Z" fill="#161A1E"/>
<path d="M138.8 200.282C138.587 199.506 138.516 198.729 138.445 198.024L141.853 198.518C144.125 198.447 146.042 201.906 145.261 204.659L144.764 206.424C142.279 206.424 139.723 203.882 138.8 200.282Z" fill="#161A1E"/>
<path d="M151.366 198.518C149.094 198.447 147.178 201.906 147.959 204.659L152.644 221.882C153.07 223.435 154.206 224.212 155.484 223.859C158.679 223.012 161.164 218.635 160.809 214.4L160.17 207.482L167.056 207.624C168.05 207.624 168.973 206.141 168.689 204.871L167.127 197.035C167.056 196.612 166.772 196.33 166.417 196.4L151.366 198.518Z" fill="#161A1E"/>
<path d="M154.489 200.282C154.702 199.506 154.773 198.729 154.844 198.024L151.437 198.518C149.165 198.447 147.248 201.906 148.029 204.659L148.526 206.424C150.94 206.424 153.567 203.882 154.489 200.282Z" fill="#161A1E"/>
<path d="M46.364 115.012C45.5121 113.035 43.1692 112.118 41.1813 113.035C40.8974 113.177 40.4004 113.247 39.6904 113.177C39.3354 113.106 38.9095 113.035 38.4835 112.965C38.0575 112.894 37.5605 112.753 37.1346 112.612C35.2887 112.118 33.5138 111.412 31.8099 110.635C30.106 109.788 28.5441 108.8 27.0532 107.671C26.0592 106.894 25.1363 105.977 24.2843 105.059C26.4142 102.729 26.7692 99.1295 25.1363 96.5177C24.4263 95.3883 22.8644 95.0353 21.7285 95.7412C20.5925 96.4471 20.2376 98.0001 20.9475 99.1295C21.4445 99.8353 21.2315 101.106 20.5215 101.812C19.7406 102.588 18.3917 102.941 17.1847 102.588C15.9068 102.235 14.7709 101.318 13.9899 99.9765C13.28 98.6353 12.996 97.2236 13.351 95.953C13.7059 94.6824 14.6289 93.6942 15.6938 93.3412C16.2618 93.1295 16.9007 93.2001 17.0427 93.4118C17.9657 94.4001 19.5276 94.4706 20.5215 93.553C21.5155 92.6353 21.5865 91.0824 20.6635 90.0942C19.1016 88.4001 16.5458 87.8353 14.0609 88.6824C12.428 89.2471 11.0081 90.2353 10.0141 91.6471C9.65916 89.7412 9.51717 87.6942 9.37518 85.5765C9.30418 84.3765 8.23925 83.5295 7.10331 83.6001C5.89638 83.6706 5.04443 84.6589 5.11543 85.8589C5.25742 88.3295 5.47041 91.3648 6.18037 94.3295C6.03837 94.1177 5.96738 93.9765 5.82539 93.7648C4.83144 92.1412 4.12149 89.8824 4.05049 88.1883C3.97949 86.9883 2.98555 86.1412 1.84962 86.2118C0.855675 86.0706 -0.0672715 87.0589 0.00372441 88.2589C0.145716 90.6589 1.06866 93.6236 2.41758 95.8118C3.8375 98.1412 7.60028 103.718 12.144 105.271C13.28 106.259 14.5579 106.965 15.9778 107.318C16.6878 107.529 17.4687 107.6 18.1787 107.6C18.3207 107.6 18.5336 107.6 18.6756 107.6C19.8826 109.294 21.2315 110.918 22.7934 112.4C24.4973 114.024 26.4142 115.435 28.4731 116.635C30.5319 117.835 32.6618 118.824 34.7917 119.6C35.3597 119.812 35.8566 119.953 36.4246 120.165C36.9926 120.377 37.6315 120.518 38.3415 120.659C39.6904 120.941 41.3943 121.012 43.1692 120.588L43.5952 120.447C43.8082 120.377 43.9502 120.306 44.1632 120.235C46.293 119.318 47.216 116.988 46.364 115.012Z" fill="#161A1E"/>
<path d="M291.018 86.5648C289.812 86.4943 288.818 87.4119 288.818 88.5413C288.747 90.2354 287.966 92.5648 287.043 94.1178C286.901 94.3296 286.83 94.4707 286.688 94.6825C287.398 91.7178 287.611 88.7531 287.753 86.2119C287.824 85.0119 286.972 84.0237 285.765 83.9531C284.629 83.8825 283.564 84.7296 283.493 85.9296C283.351 88.0472 283.209 90.0943 282.854 92.0001C281.789 90.659 280.369 89.6001 278.807 89.0354C276.393 88.259 273.766 88.8237 272.205 90.4472C271.282 91.4354 271.353 92.9884 272.347 93.906C273.34 94.8237 274.902 94.7531 275.825 93.7648C276.038 93.5531 276.606 93.4825 277.174 93.6943C278.239 94.0472 279.162 95.106 279.517 96.306C279.872 97.5766 279.659 99.059 278.878 100.33C278.168 101.6 276.961 102.588 275.683 102.941C274.476 103.294 273.128 102.941 272.347 102.165C271.637 101.459 271.495 100.259 271.921 99.4825C272.631 98.3531 272.276 96.8001 271.14 96.0943C270.004 95.3884 268.442 95.7413 267.732 96.8707C266.099 99.4119 266.454 103.012 268.584 105.412C267.732 106.33 266.809 107.247 265.815 108.024C264.324 109.224 262.762 110.212 261.058 110.988C259.354 111.835 257.579 112.471 255.734 112.965C255.308 113.106 254.811 113.247 254.385 113.318C253.959 113.388 253.533 113.459 253.178 113.53C252.468 113.6 251.971 113.53 251.687 113.388C251.474 113.318 251.261 113.247 251.119 113.177C248.989 112.612 246.859 113.882 246.291 116C245.723 118.118 247.001 120.235 249.131 120.8L249.557 120.941C251.332 121.435 253.036 121.294 254.385 121.012C255.095 120.871 255.734 120.73 256.301 120.518C256.94 120.306 257.437 120.165 257.934 119.953C260.135 119.177 262.265 118.188 264.253 116.988C266.312 115.788 268.229 114.377 269.933 112.753C271.495 111.271 272.844 109.718 274.05 107.953C274.192 107.953 274.405 107.953 274.547 107.953C275.257 107.953 276.038 107.882 276.748 107.671C278.168 107.318 279.446 106.612 280.582 105.624C285.126 104.071 288.889 98.4943 290.309 96.1648C291.657 93.9766 292.58 91.0119 292.722 88.6119C293.077 87.5531 292.154 86.5648 291.018 86.5648Z" fill="#161A1E"/>
<path d="M146.185 32.5C158.898 32.5 169.804 40.1389 174.911 51.1279L175.129 51.5967L175.59 51.3643C179.852 49.2108 184.603 48.0293 189.635 48.0293C206.189 48.0295 219.826 61.0882 221.155 77.71L221.188 78.1084L221.582 78.165C238.95 80.6717 252.392 95.6433 252.392 113.529V116.755L252.784 116.841C264.421 119.404 273.263 129.797 273.193 142.115V143.105C273.193 157.368 261.493 169.006 247.142 169.006H227.359L227.229 169.308C222.495 180.245 209.848 188.136 194.888 188.136C186.398 188.136 178.619 185.553 172.6 181.309L172.216 181.038L171.922 181.404C165.779 189.039 155.279 194.064 143.345 194.064C132.396 194.064 122.662 189.807 116.374 183.208L116.104 182.926L115.766 183.118C110.232 186.252 103.501 188.136 96.2744 188.136C81.3146 188.136 68.6683 180.245 63.9336 169.308L63.8027 169.006H43.9512C29.5994 169.006 17.8984 157.368 17.8984 143.105V142.117C17.8987 129.796 26.6726 119.405 38.3779 116.842L38.7715 116.755V113.529C38.7715 96.6179 50.7423 82.3432 66.7109 78.6523L67.0742 78.5684L67.0977 78.1953C68.147 61.2962 81.9237 47.9591 98.6885 47.959C105.045 47.959 110.984 49.9033 115.945 53.2383L116.467 53.5889L116.691 53.0029C121.307 40.9742 132.771 32.5002 146.185 32.5Z" fill="white" stroke="black"/>
<path d="M99.1836 96.9412C100.178 97.0118 101.171 96.5883 102.236 96.2354C103.301 95.8118 104.366 95.4589 105.289 95.1765C106.212 94.8942 107.277 94.5412 108.413 94.2589C109.478 93.9765 110.614 93.6942 111.324 93.0589C112.034 92.4942 112.034 91.3648 110.685 90.5177C109.407 89.6707 106.709 89.1059 103.585 90.0942C100.461 91.0824 98.6156 93.0589 98.1186 94.5412C97.6216 96.0236 98.2606 96.8706 99.1836 96.9412Z" fill="#161A1E"/>
<path d="M191.765 98.1412C190.771 98.1412 189.777 97.5765 188.783 97.0824C187.789 96.5883 186.795 96.0941 185.872 95.6706C184.949 95.2471 183.955 94.8941 182.89 94.4706C181.825 94.0471 180.76 93.6941 180.121 92.9883C179.482 92.353 179.624 91.2941 181.044 90.5177C182.393 89.8118 185.162 89.5294 188.144 90.8706C191.126 92.2118 192.758 94.3294 193.113 95.8118C193.468 97.3647 192.687 98.1412 191.765 98.1412Z" fill="#161A1E"/>
<path d="M169.041 111.765C169.396 111.835 169.751 111.976 170.035 112.259C180.258 121.012 189.629 116.353 189.7 116.282C190.765 115.718 191.972 116.141 192.54 117.2C193.108 118.259 192.682 119.459 191.617 120.024C191.12 120.306 179.619 126.094 167.195 115.435C166.343 114.659 166.201 113.388 166.982 112.471C167.55 111.906 168.26 111.624 169.041 111.765Z" fill="#161A1E"/>
<path d="M100.174 115.435C100.529 115.365 100.884 115.435 101.239 115.577C113.805 120.518 121.118 112.965 121.189 112.894C121.97 112.047 123.319 112.047 124.171 112.824C125.023 113.6 125.094 114.941 124.242 115.788C123.887 116.212 114.87 125.459 99.6773 119.459C98.6124 119.035 98.0444 117.835 98.4704 116.777C98.8254 116.071 99.4643 115.577 100.174 115.435Z" fill="#161A1E"/>
<path d="M145.118 129.059C138.658 129.059 134.185 126.306 134.114 126.236C133.759 126.024 133.688 125.6 133.901 125.247C134.114 124.894 134.54 124.824 134.895 125.036C134.966 125.106 144.834 131.106 156.265 124.541C156.62 124.33 157.046 124.471 157.259 124.824C157.472 125.177 157.33 125.6 156.975 125.812C152.715 128.212 148.597 129.059 145.118 129.059Z" fill="#161A1E"/>
<path d="M131.058 128.141C130.774 128.141 130.49 127.93 130.348 127.647C130.207 127.294 130.419 126.871 130.845 126.73C132.265 126.306 133.827 124.894 134.537 123.271C134.963 122.424 135.318 121.082 134.75 119.741C134.608 119.388 134.75 118.965 135.105 118.824C135.46 118.682 135.886 118.824 136.028 119.177C136.667 120.659 136.596 122.212 135.815 123.835C134.892 125.812 133.046 127.435 131.271 128C131.2 128.071 131.129 128.141 131.058 128.141Z" fill="#161A1E"/>
<path d="M160.448 128.141C160.377 128.141 160.306 128.141 160.235 128.141C158.389 127.577 156.614 125.883 155.691 123.977C154.91 122.353 154.839 120.8 155.478 119.318C155.62 118.965 156.046 118.753 156.401 118.965C156.756 119.106 156.969 119.53 156.756 119.883C156.188 121.224 156.543 122.565 156.969 123.412C157.679 124.965 159.241 126.447 160.661 126.871C161.016 127.012 161.229 127.365 161.158 127.788C161.016 127.93 160.732 128.141 160.448 128.141Z" fill="#161A1E"/>
<circle cx="83" cy="136" r="10" fill="#161A1E"/>
<circle cx="207" cy="136" r="10" fill="#161A1E"/>
</g>
<circle cx="75" cy="41" r="7" fill="#161A1E"/>
<circle cx="196" cy="4" r="4" fill="#161A1E"/>
<defs>
<clipPath id="clip0_61_1579">
<rect width="293" height="192" fill="white" transform="translate(0 32)"/>
</clipPath>
</defs>
</svg>
