<svg width="48" height="48" viewBox="0 0 48 48" fill="none" xmlns="http://www.w3.org/2000/svg">
<path d="M39.1701 44.625H27.5799C26.6132 44.625 25.8051 43.89 25.7134 42.9277L24 24.9375H42.75L41.0366 42.9277C40.9449 43.89 40.1368 44.625 39.1701 44.625Z" fill="#B8DEFF"/>
<path d="M39.1701 45.5625H27.58C26.122 45.5625 24.9184 44.4681 24.7801 43.0166L22.969 24H43.7811L41.9701 43.0166C41.8317 44.4681 40.6279 45.5625 39.1701 45.5625ZM25.0311 25.875L26.6466 42.8389C26.6927 43.3226 27.094 43.6875 27.58 43.6875H39.1701C39.6561 43.6875 40.0572 43.3226 40.1035 42.8389L41.719 25.875H25.0311Z" fill="black"/>
<path d="M37.125 36.1875H29.625C23.9387 36.1875 19.3125 31.5613 19.3125 25.875V24H47.4375V25.875C47.4375 31.5613 42.8113 36.1875 37.125 36.1875ZM21.1875 25.875C21.1875 30.5274 24.9726 34.3125 29.625 34.3125H37.125C41.7774 34.3125 45.5625 30.5274 45.5625 25.875H21.1875Z" fill="black"/>
<path d="M14.625 32.4375H9V5.25C9 3.69919 10.2617 2.4375 11.8125 2.4375C13.3633 2.4375 14.625 3.69919 14.625 5.25V32.4375ZM10.875 30.5625H12.75V5.25C12.75 4.73306 12.3294 4.3125 11.8125 4.3125C11.2956 4.3125 10.875 4.73306 10.875 5.25V30.5625Z" fill="black"/>
<path d="M23.0625 45.5625H0.5625V40.875C0.5625 39.3242 1.82419 38.0625 3.375 38.0625H20.25C21.8008 38.0625 23.0625 39.3242 23.0625 40.875V45.5625ZM2.4375 43.6875H21.1875V40.875C21.1875 40.3581 20.7669 39.9375 20.25 39.9375H3.375C2.85806 39.9375 2.4375 40.3581 2.4375 40.875V43.6875Z" fill="black"/>
<path d="M19.7008 39.9375H3.92419L9.54919 34.3125H14.076L19.7008 39.9375ZM8.45082 38.0625H15.174L13.299 36.1875H10.3258L8.45082 38.0625Z" fill="black"/>
<path d="M33.375 19.3125C28.7226 19.3125 24.9375 15.5274 24.9375 10.875C24.9375 6.22256 28.7226 2.4375 33.375 2.4375C38.0274 2.4375 41.8125 6.22256 41.8125 10.875C41.8125 15.5274 38.0274 19.3125 33.375 19.3125ZM33.375 4.3125C29.7564 4.3125 26.8125 7.25644 26.8125 10.875C26.8125 14.4936 29.7564 17.4375 33.375 17.4375C36.9936 17.4375 39.9375 14.4936 39.9375 10.875C39.9375 7.25644 36.9936 4.3125 33.375 4.3125Z" fill="black"/>
<path d="M32.4375 14.0758L29.8995 11.538L31.2255 10.212L32.4375 11.4242L35.5245 8.33704L36.8505 9.66304L32.4375 14.0758Z" fill="black"/>
</svg>
