<svg width="52" height="48" viewBox="0 0 52 48" fill="none" xmlns="http://www.w3.org/2000/svg">
<path d="M9.72974 5.25V35.25H23.9189V31.5H22.9054L15.8108 29.625V25.875H36.0811V29.625L28.9865 31.5H27.973V35.25H42.1622V5.25H9.72974ZM35.8784 14.4375L34.0541 17.4375L32.2297 14.4375L28.9865 12.75L32.2297 11.0625L34.0541 8.0625L35.8784 11.0625L39.1216 12.75L35.8784 14.4375Z" fill="#B8DEFF"/>
<path d="M43.1756 36.1875H26.9594V30.5625H28.8446L35.0675 28.9179V26.8125H16.8243V28.9179L23.0473 30.5625H24.9324V36.1875H8.71619V4.3125H43.1756V36.1875ZM28.9865 34.3125H41.1486V12.771L36.6227 15.126L34.054 19.3498L31.4854 15.126L26.9193 12.75L31.4854 10.3742L34.0315 6.1875H10.7432V34.3125H22.9054V32.4375H22.7635L14.7973 30.3321V24.9375H37.0946V30.3321L29.1283 32.4375H28.9865V34.3125ZM31.0536 12.75L32.974 13.7492L34.054 15.5252L35.134 13.749L37.0544 12.75L35.134 11.7508L34.054 9.97481L32.974 11.751L31.0536 12.75ZM36.6227 10.3742L41.1486 12.729V6.1875H34.0765L36.6227 10.3742Z" fill="black"/>
<path d="M26.9594 5.25H24.9324V25.875H26.9594V5.25Z" fill="black"/>
<path d="M42.1622 19.3125H9.72974V21.1875H42.1622V19.3125Z" fill="black"/>
<path d="M29.1281 32.4375H22.7633L14.7972 30.3321V24.9375H37.0945V30.3321L29.1281 32.4375ZM23.047 30.5625H28.8443L35.0675 28.9179V26.8125H16.8243V28.9179L23.047 30.5625Z" fill="black"/>
<path d="M27.2971 47.4375H24.5945C23.6472 47.4375 22.9052 46.6138 22.9052 45.5625V30.5625H28.9862V45.5625C28.9862 46.6138 28.2443 47.4375 27.2971 47.4375ZM24.9322 45.5625H26.9592V32.4375H24.9322V45.5625Z" fill="black"/>
<path d="M47.2297 39.9375H26.9594V32.4375H24.9324V39.9375H4.66211V0.5625H47.2297V39.9375ZM28.9864 38.0625H45.2026V2.4375H6.68914V38.0625H22.9054V30.5625H28.9864V38.0625Z" fill="black"/>
<path d="M39.1216 24.9375H12.7703V26.8125H39.1216V24.9375Z" fill="black"/>
</svg>
