<svg width="48" height="48" viewBox="0 0 48 48" fill="none" xmlns="http://www.w3.org/2000/svg">
<path d="M22.125 47.4375H0.5625V0.5625H43.6875V31.5H41.8125V2.4375H2.4375V45.5625H22.125V47.4375Z" fill="black"/>
<path d="M12.75 35.25H1.5V46.5H12.75V35.25Z" fill="#B8DEFF"/>
<path d="M13.6875 47.4375H0.5625V34.3125H13.6875V47.4375ZM2.4375 45.5625H11.8125V36.1875H2.4375V45.5625Z" fill="black"/>
<path d="M10.875 35.25H1.5V24H7.125C9.19613 24 10.875 25.6789 10.875 27.75V35.25Z" fill="#B8DEFF"/>
<path d="M11.8125 36.1875H0.5625V23.0625H7.125C9.70969 23.0625 11.8125 25.1653 11.8125 27.75V36.1875ZM2.4375 34.3125H9.9375V27.75C9.9375 26.1992 8.67581 24.9375 7.125 24.9375H2.4375V34.3125Z" fill="black"/>
<path d="M16.3633 31.5024C14.3312 31.5746 12.75 33.3066 12.75 35.3398V46.5H14.625C15.6606 46.5 16.5 45.6606 16.5 44.625V39C18.5711 39 20.25 37.3211 20.25 35.25C20.25 33.1335 18.4967 31.4265 16.3633 31.5024Z" fill="#B8DEFF"/>
<path d="M14.625 47.4374H11.8125V35.3398C11.8125 32.7958 13.839 30.6539 16.3299 30.5653C17.6149 30.5191 18.8314 30.9853 19.755 31.8766C20.6788 32.7684 21.1875 33.9661 21.1875 35.2499C21.1875 37.5136 19.5744 39.4078 17.4375 39.8433V44.6249C17.4375 46.1758 16.1758 47.4374 14.625 47.4374ZM13.6875 45.5624H14.625C15.1419 45.5624 15.5625 45.1419 15.5625 44.6249V38.0624H16.5C18.0508 38.0624 19.3125 36.8008 19.3125 35.2499C19.3125 34.4799 19.0073 33.761 18.4528 33.2259C17.8988 32.6911 17.1682 32.4134 16.3965 32.4393C14.9027 32.4924 13.6875 33.7934 13.6875 35.3398V45.5624Z" fill="black"/>
<path d="M23.0625 1.5H21.1875V7.125H23.0625V1.5Z" fill="black"/>
<path d="M31.8883 15.5625H12.3617L22.125 5.79919L31.8883 15.5625ZM16.8883 13.6875H27.3615L22.125 8.45082L16.8883 13.6875Z" fill="black"/>
<path d="M30.875 21H29V43.5H30.875V21Z" fill="black"/>
<path d="M38.0625 47.4375H21.1875V41.8125C21.1875 40.7786 22.0286 39.9375 23.0625 39.9375H36.1875C37.2214 39.9375 38.0625 40.7786 38.0625 41.8125V47.4375ZM23.0625 45.5625H36.1875V41.8125H23.0625V45.5625Z" fill="black"/>
<path d="M41.8873 47.4375H36.1875V41.8125H32.0435L31.4186 34.3125H44.7063L43.7559 45.7181C43.6755 46.6824 42.8548 47.4375 41.8873 47.4375ZM38.0625 45.5625H41.8873L42.6686 36.1875H33.4563L33.7689 39.9375H36.1875C37.2213 39.9375 38.0625 40.7786 38.0625 41.8125V45.5625Z" fill="black"/>
<path d="M46.5 34.3125H29.625V36.1875H46.5V34.3125Z" fill="black"/>
<path d="M22.125 19.3125C19.5403 19.3125 17.4375 17.2097 17.4375 14.625V13.6875H26.8125V14.625C26.8125 17.2097 24.7097 19.3125 22.125 19.3125ZM19.4732 15.5625C19.86 16.6537 20.9029 17.4375 22.125 17.4375C23.3471 17.4375 24.39 16.6537 24.7768 15.5625H19.4732Z" fill="black"/>
</svg>
