<svg width="64" height="64" viewBox="0 0 64 64" fill="none" xmlns="http://www.w3.org/2000/svg">
<circle cx="32" cy="32" r="32" fill="white"/>
<path d="M22 19.5V39.5H30.75V37H30.125L25.75 35.75V33.25H38.25V35.75L33.875 37H33.25V39.5H42V19.5H22ZM38.125 25.625L37 27.625L35.875 25.625L33.875 24.5L35.875 23.375L37 21.375L38.125 23.375L40.125 24.5L38.125 25.625Z" fill="#B8DEFF"/>
<path d="M42.625 40.125H32.625V36.375H33.7875L37.625 35.2786V33.875H26.375V35.2786L30.2125 36.375H31.375V40.125H21.375V18.875H42.625V40.125ZM33.875 38.875H41.375V24.514L38.584 26.084L37 28.8999L35.416 26.084L32.6003 24.5L35.416 22.9161L36.9861 20.125H22.625V38.875H30.125V37.625H30.0375L25.125 36.2214V32.625H38.875V36.2214L33.9625 37.625H33.875V38.875ZM35.1497 24.5L36.334 25.1661L37 26.3501L37.666 25.166L38.8503 24.5L37.666 23.8339L37 22.6499L36.334 23.834L35.1497 24.5ZM38.584 22.9161L41.375 24.486V20.125H37.0139L38.584 22.9161Z" fill="black"/>
<path d="M32.625 19.5H31.375V33.25H32.625V19.5Z" fill="black"/>
<path d="M42 28.875H22V30.125H42V28.875Z" fill="black"/>
<path d="M33.9624 37.625H30.0374L25.125 36.2214V32.625H38.875V36.2214L33.9624 37.625ZM30.2124 36.375H33.7874L37.625 35.2786V33.875H26.375V35.2786L30.2124 36.375Z" fill="black"/>
<path d="M32.8334 47.625H31.1668C30.5826 47.625 30.125 47.0759 30.125 46.375V36.375H33.875V46.375C33.875 47.0759 33.4175 47.625 32.8334 47.625ZM31.375 46.375H32.625V37.625H31.375V46.375Z" fill="black"/>
<path d="M45.125 42.625H32.625V37.625H31.375V42.625H18.875V16.375H45.125V42.625ZM33.875 41.375H43.875V17.625H20.125V41.375H30.125V36.375H33.875V41.375Z" fill="black"/>
<path d="M40.125 32.625H23.875V33.875H40.125V32.625Z" fill="black"/>
</svg>
