<svg width="48" height="48" viewBox="0 0 48 48" fill="none" xmlns="http://www.w3.org/2000/svg">
<g clip-path="url(#clip0_61_1469)">
<path d="M39.9375 21.1875H38.0625V43.6875H39.9375V21.1875Z" fill="black"/>
<path d="M47.4375 47.4375H30.5625V41.8125C30.5625 40.7786 31.4036 39.9375 32.4375 39.9375H45.5625C46.5964 39.9375 47.4375 40.7786 47.4375 41.8125V47.4375ZM32.4373 45.5625H45.5625V41.8125H32.4364L32.4373 45.5625Z" fill="black"/>
<path d="M32.4375 47.4375H26.7376C25.7703 47.4375 24.9495 46.6824 24.869 45.7183L23.9186 34.3125H37.2063L36.5814 41.8125H32.4363L32.4375 47.4375ZM25.9563 36.1875L26.7376 45.5625H30.5625V41.8125C30.5625 40.7786 31.4036 39.9375 32.4375 39.9375H34.856L35.1686 36.1875H25.9563Z" fill="black"/>
<path d="M38.0625 34.3125H23.0625V36.1875H38.0625V34.3125Z" fill="black"/>
<path d="M26.7377 47.4375H0.5625V15.5625H27.75V36.1875H25.9564L26.7377 45.5625V45.5623V47.4375ZM2.4375 45.5625H24.8561L23.9186 34.3125H25.875V17.4375H2.4375V45.5625Z" fill="black"/>
<path d="M26.8125 12.75H1.5V1.5H19.3125L26.8125 11.8125V12.75Z" fill="#B8DEFF"/>
<path d="M27.75 13.6875H0.5625V0.5625H19.7899L27.75 11.5076V13.6875ZM2.4375 11.8125H25.6532L18.8351 2.4375H2.4375V11.8125Z" fill="black"/>
<path d="M13.6875 1.5H11.8125V12.75H13.6875V1.5Z" fill="black"/>
<path d="M19.3125 1.5H17.4375V12.75H19.3125V1.5Z" fill="black"/>
<path d="M8.0625 1.5H6.1875V12.75H8.0625V1.5Z" fill="black"/>
<path d="M23.0625 6.1875H1.5V8.0625H23.0625V6.1875Z" fill="black"/>
<path d="M38.9997 13.7248L36.6239 9.50096L32.3999 7.12496L36.6237 4.74915L38.9997 0.525146L41.3755 4.74896L45.5995 7.12496L41.3757 9.50077L38.9997 13.7248ZM36.2245 7.12496L38.0007 8.12415L38.9997 9.90015L39.9989 8.12396L41.7749 7.12496L39.9987 6.12577L38.9997 4.34977L38.0005 6.12596L36.2245 7.12496Z" fill="black"/>
<path d="M15.5625 32.4375H0.5625V21.1875H15.5625V32.4375ZM2.4375 30.5625H13.6875V23.0625H2.4375V30.5625Z" fill="black"/>
<path d="M9 22.125H7.125V31.5H9V22.125Z" fill="black"/>
</g>
<defs>
<clipPath id="clip0_61_1469">
<rect width="48" height="48" fill="white"/>
</clipPath>
</defs>
</svg>
