<svg width="48" height="48" viewBox="0 0 48 48" fill="none" xmlns="http://www.w3.org/2000/svg">
<path d="M2.4375 46.5H0.5625V0.5625H43.6875V31.5H41.8125V2.4375H2.4375V46.5Z" fill="black"/>
<path d="M30.5625 21.1875H28.6875V43.6875H30.5625V21.1875Z" fill="black"/>
<path d="M41.8873 47.4375H36.1875V41.8125H32.0435L31.4186 34.3125H44.7061L43.7557 45.7181C43.6756 46.6823 42.855 47.4375 41.8873 47.4375ZM38.0625 45.5625H41.8873L42.6686 36.1875H33.4561L33.7687 39.9375H36.1875C37.2213 39.9375 38.0625 40.7786 38.0625 41.8125V45.5625Z" fill="black"/>
<path d="M46.5 34.3125H29.625V36.1875H46.5V34.3125Z" fill="black"/>
<path d="M12.75 35.25H1.5V46.5H12.75V35.25Z" fill="#B8DEFF"/>
<path d="M13.6875 47.4375H0.5625V34.3125H13.6875V47.4375ZM2.4375 45.5625H11.8125V36.1875H2.4375V45.5625Z" fill="black"/>
<path d="M18.375 24H7.125V35.25H18.375V24Z" fill="#B8DEFF"/>
<path d="M19.3125 36.1875H6.1875V23.0625H19.3125V36.1875ZM8.0625 34.3125H17.4375V24.9375H8.0625V34.3125Z" fill="black"/>
<path d="M38.0625 47.4375H21.1875V41.8125C21.1875 40.7786 22.0286 39.9375 23.0625 39.9375H36.1875C37.2214 39.9375 38.0625 40.7786 38.0625 41.8125V47.4375ZM23.0625 45.5625H36.1875V41.8125H23.0625V45.5625Z" fill="black"/>
<path d="M23.0625 40.875H24V35.25H12.75V46.5H22.125V41.8125C22.125 41.2948 22.5448 40.875 23.0625 40.875Z" fill="#B8DEFF"/>
<path d="M23.0625 47.4375H11.8125V34.3125H24.9375V41.8125H23.0612L23.0625 47.4375ZM13.6875 45.5625H21.1875V41.8125C21.1875 40.7786 22.0286 39.9375 23.0625 39.9375V36.1875H13.6875V45.5625Z" fill="black"/>
<path d="M17.6259 20.25V16.5H6.1875V9H17.6259V5.25L27.6259 12.75L17.6259 20.25ZM8.0625 14.625H19.5009V16.5L24.501 12.75L19.5009 9V10.875H8.0625V14.625Z" fill="black"/>
</svg>
