<svg width="134" height="40" viewBox="0 0 134 40" fill="none" xmlns="http://www.w3.org/2000/svg">
<path d="M61.5694 38.4706C61.5694 38.8058 61.2871 38.9999 61.0224 38.9999C60.8636 38.9999 60.6872 38.9117 60.5813 38.7529L59.6638 37.4119C59.5227 37.2002 59.3109 36.9708 58.9051 36.9708H58.0935V38.4353C58.0935 38.7705 57.8817 38.9999 57.5465 38.9999C57.2112 38.9999 56.9995 38.7529 56.9995 38.4353V33.6536C56.9995 33.3184 57.2112 33.089 57.5465 33.089H59.3639C60.7931 33.089 61.393 34.0242 61.393 34.9946C61.393 35.6651 61.0401 36.3356 60.352 36.7061C60.546 36.8826 60.7049 37.0414 60.8107 37.2178L61.4636 38.153C61.5341 38.2412 61.5694 38.3647 61.5694 38.4706ZM59.3286 36.018C60.1049 36.018 60.3167 35.4887 60.3167 35.0299C60.3167 34.5711 60.0873 34.0947 59.3286 34.0947H58.0935V36.018H59.3286Z" fill="#0782C4"/>
<path d="M66.8545 38.7753C66.8545 39.0753 66.6428 39.287 66.3076 39.287H63.6256C63.2903 39.287 63.0786 39.04 63.0786 38.7224V33.9407C63.0786 33.6055 63.2903 33.3761 63.6256 33.3761H66.2723C66.6075 33.3761 66.8192 33.5878 66.8192 33.8878C66.8192 34.1878 66.6075 34.3995 66.2723 34.3995H64.1373V35.7758H65.8488C66.1664 35.7758 66.3958 35.9699 66.3958 36.2698C66.3958 36.5698 66.1664 36.7815 65.8488 36.7815H64.1373V38.2813H66.3076C66.6428 38.2636 66.8545 38.4754 66.8545 38.7753Z" fill="#0782C4"/>
<path d="M69.7487 33.9407V38.7223C69.7487 39.0575 69.537 39.2869 69.2018 39.2869C68.8665 39.2869 68.6548 39.0399 68.6548 38.7223V33.9407C68.6548 33.6054 68.8665 33.376 69.2018 33.376C69.5194 33.3584 69.7487 33.6054 69.7487 33.9407Z" fill="#0782C4"/>
<path d="M76.6301 33.9407V38.7224C76.6301 39.0576 76.4184 39.287 76.0831 39.287C75.9067 39.287 75.7479 39.2164 75.6597 39.1106L72.8542 35.4582V38.7224C72.8542 39.0576 72.6425 39.287 72.3072 39.287C71.972 39.287 71.7603 39.04 71.7603 38.7224V33.9407C71.7603 33.6055 71.972 33.3761 72.3072 33.3761C72.519 33.3761 72.6425 33.482 72.7836 33.6408L75.5538 37.2579V33.9584C75.5538 33.6231 75.7655 33.3938 76.1008 33.3938C76.4184 33.3585 76.6301 33.6055 76.6301 33.9407Z" fill="#0782C4"/>
<path d="M80.0241 33.6535V38.4352C80.0241 38.7704 79.8124 38.9998 79.4772 38.9998C79.1419 38.9998 78.9302 38.7528 78.9302 38.4352V33.6535C78.9302 33.3183 79.1419 33.0889 79.4772 33.0889C79.8124 33.0713 80.0241 33.3183 80.0241 33.6535Z" fill="#0782C4"/>
<path d="M87.4179 36.0703V36.7584C87.4179 38.2758 86.0946 39.0698 84.7713 39.0698C83.148 39.0698 81.8423 37.8524 81.8423 36.0526C81.8423 34.3235 83.0421 33.0001 84.7713 33.0001C85.7064 33.0001 86.3946 33.3707 86.7651 33.7236C86.9592 33.9 87.0121 34.0235 87.0121 34.1647C87.0121 34.447 86.8357 34.6764 86.5181 34.6764C86.3769 34.6764 86.271 34.6411 86.1122 34.5176C85.9005 34.3588 85.5123 34.0235 84.7889 34.0235C83.6773 34.0235 82.9539 34.9057 82.9539 36.0703C82.9539 37.2701 83.7302 38.0994 84.8242 38.0994C85.7241 38.0994 86.3416 37.5701 86.3416 36.7055V36.5643H85.3712C85.0536 36.5643 84.8418 36.3702 84.8418 36.0703C84.8418 35.7703 85.0536 35.5762 85.3712 35.5762H86.871C87.2238 35.5762 87.4179 35.7703 87.4179 36.0703Z" fill="#0782C4"/>
<path d="M93.999 33.6536V36.7238C93.999 38.2765 92.8874 39.0705 91.5994 39.0705C90.329 39.0705 89.1997 38.2765 89.1997 36.7238V33.6536C89.1997 33.3184 89.4114 33.089 89.7467 33.089C90.0819 33.089 90.2937 33.336 90.2937 33.6536V36.7238C90.2937 37.7295 90.8583 38.0647 91.5994 38.0647C92.3581 38.0647 92.9227 37.7119 92.9227 36.7238V33.6536C92.9227 33.3184 93.1344 33.089 93.4697 33.089C93.8049 33.089 93.999 33.3184 93.999 33.6536Z" fill="#0782C4"/>
<path d="M100.811 33.6536V38.4353C100.811 38.7705 100.599 38.9999 100.264 38.9999C100.087 38.9999 99.9286 38.9293 99.8404 38.8235L97.0349 35.1711V38.4353C97.0349 38.7705 96.8231 38.9999 96.4879 38.9999C96.1527 38.9999 95.9409 38.7529 95.9409 38.4353V33.6536C95.9409 33.3184 96.1527 33.089 96.4879 33.089C96.6996 33.089 96.8231 33.1949 96.9643 33.3537L99.7345 36.9708V33.6713C99.7345 33.336 99.9462 33.1067 100.281 33.1067C100.599 33.0714 100.811 33.3184 100.811 33.6536Z" fill="#0782C4"/>
<path d="M108.186 36.0703V36.7584C108.186 38.2758 106.862 39.0698 105.539 39.0698C103.916 39.0698 102.61 37.8524 102.61 36.0526C102.61 34.3235 103.81 33.0001 105.539 33.0001C106.474 33.0001 107.162 33.3707 107.533 33.7236C107.727 33.9 107.78 34.0235 107.78 34.1647C107.78 34.447 107.603 34.6764 107.286 34.6764C107.144 34.6764 107.039 34.6411 106.88 34.5176C106.668 34.3588 106.28 34.0235 105.556 34.0235C104.445 34.0235 103.721 34.9057 103.721 36.0703C103.721 37.2701 104.498 38.0994 105.592 38.0994C106.492 38.0994 107.109 37.5701 107.109 36.7055V36.5643H106.139C105.821 36.5643 105.609 36.3702 105.609 36.0703C105.609 35.7703 105.821 35.5762 106.139 35.5762H107.639C107.974 35.5762 108.186 35.7703 108.186 36.0703Z" fill="#0782C4"/>
<path d="M113.761 38.4882C113.761 38.7882 113.549 38.9999 113.214 38.9999H110.532C110.197 38.9999 109.985 38.7529 109.985 38.4353V33.6536C109.985 33.3184 110.197 33.089 110.532 33.089H113.179C113.514 33.089 113.725 33.3007 113.725 33.6007C113.725 33.9007 113.514 34.1124 113.179 34.1124H111.044V35.4887H112.755C113.073 35.4887 113.302 35.6827 113.302 35.9827C113.302 36.2827 113.073 36.4944 112.755 36.4944H111.044V37.9942H113.214C113.549 37.9765 113.761 38.1883 113.761 38.4882Z" fill="#0782C4"/>
<path d="M120.316 33.2783V38.06C120.316 38.3952 120.105 38.6246 119.769 38.6246C119.593 38.6246 119.434 38.554 119.346 38.4481L116.54 34.7957V38.06C116.54 38.3952 116.329 38.6246 115.993 38.6246C115.658 38.6246 115.446 38.3776 115.446 38.06V33.2783C115.446 32.9431 115.658 32.7137 115.993 32.7137C116.205 32.7137 116.329 32.8195 116.47 32.9783L119.24 36.5955V33.2959C119.24 32.9607 119.452 32.7313 119.787 32.7313C120.105 32.696 120.316 32.9431 120.316 33.2783Z" fill="#0782C4"/>
<path d="M61.49 26.9976C61.49 28.1092 60.7137 28.8502 59.5315 28.8502H47.1098C45.9982 28.8502 45.3453 27.8974 45.3453 26.927C45.3453 26.4682 45.4689 26.0448 45.7335 25.6566L55.8967 11.2587H47.7097C46.5628 11.2587 45.7864 10.5176 45.7864 9.44133C45.7864 8.32973 46.5628 7.58866 47.745 7.58866H59.3198C60.5902 7.58866 61.2783 8.50618 61.3136 9.44133C61.3136 9.90009 61.2077 10.3588 60.9254 10.747L50.7622 25.1802H59.5315C60.7137 25.1626 61.49 25.9213 61.49 26.9976Z" fill="#0782C4"/>
<path d="M63.1669 18.2274C63.1669 11.8401 67.825 7.30546 74.0888 7.30546C80.3702 7.30546 85.0107 11.8401 85.0107 18.2274C85.0107 24.5794 80.3879 29.114 74.0888 29.114C67.825 29.114 63.1669 24.5794 63.1669 18.2274ZM74.0711 25.4263C78.3058 25.4263 81.0054 22.5503 81.0054 18.2274C81.0054 13.8692 78.3058 10.9932 74.0711 10.9932C69.8718 10.9932 67.1369 13.8692 67.1369 18.2274C67.1369 22.5503 69.8718 25.4263 74.0711 25.4263Z" fill="#0782C4"/>
<path d="M87.2692 18.2274C87.2692 11.8401 91.9273 7.30546 98.1911 7.30546C104.473 7.30546 109.113 11.8401 109.113 18.2274C109.113 24.5794 104.49 29.114 98.1911 29.114C91.9273 29.114 87.2692 24.5794 87.2692 18.2274ZM98.1911 25.4263C102.426 25.4263 105.125 22.5503 105.125 18.2274C105.125 13.8692 102.426 10.9932 98.1911 10.9932C93.9917 10.9932 91.2568 13.8692 91.2568 18.2274C91.2568 22.5503 93.9917 25.4263 98.1911 25.4263Z" fill="#0782C4"/>
<path d="M131.24 28.85C130.393 28.85 129.422 28.3559 129.281 27.0855L127.94 15.2285L124.288 23.4155C123.935 24.2271 123.247 24.6859 122.488 24.6859C121.712 24.6859 121.024 24.2271 120.671 23.4155L117.054 15.2637L115.713 27.0855C115.589 28.3559 114.636 28.85 113.789 28.85C112.184 28.85 111.831 27.5796 111.972 26.3974L113.895 9.42343C114.019 8.18832 114.936 7.57076 115.889 7.57076C116.665 7.57076 117.283 8.02952 117.653 8.77058L122.506 19.0044L127.323 8.77058C127.711 8.02952 128.293 7.57076 129.087 7.57076C130.163 7.57076 131.01 8.29418 131.134 9.38814L133.022 26.3974C133.163 27.5796 132.81 28.85 131.24 28.85Z" fill="#0782C4"/>
<path fill-rule="evenodd" clip-rule="evenodd" d="M18.4242 2.36823C18.2908 2.43181 18.1534 2.48675 18.013 2.53274C17.6076 2.69377 17.2467 2.94956 16.9605 3.2787C16.6743 3.60784 16.4711 4.00075 16.3679 4.42454L16.2857 4.75354L16.1212 4.14488C15.9829 3.72094 15.7351 3.34101 15.4029 3.0435C15.0708 2.74599 14.6659 2.54142 14.2294 2.45048L13.8181 2.36823L14.0649 2.28598C14.4566 2.18696 14.8218 2.00301 15.1345 1.74715C15.4472 1.4913 15.6998 1.1698 15.8744 0.805439C15.9688 0.618936 16.0512 0.426627 16.1212 0.229673V0.0322679C16.1212 -0.0499843 16.1212 0.0322679 16.2034 0.196772C16.2937 0.626154 16.4922 1.02534 16.7801 1.35644C17.068 1.68753 17.4358 1.93955 17.8485 2.08857C18.1775 2.20373 18.4242 2.28598 18.4242 2.36823Z" fill="#0782C4"/>
<path fill-rule="evenodd" clip-rule="evenodd" d="M7.32045 6.31631C7.10436 6.38342 6.88467 6.43834 6.66243 6.48082C6.20936 6.55875 5.77765 6.73076 5.39514 6.98577C5.01263 7.24077 4.68781 7.57311 4.44162 7.96135C4.2008 8.31874 4.00727 8.7058 3.86585 9.11289C3.86585 9.19514 3.86585 9.27739 3.7836 9.27739C3.73893 9.32176 3.71004 9.37954 3.70135 9.44189V9.7709C3.70135 9.93541 3.6191 9.7709 3.53684 9.35964C3.41015 8.66631 3.06416 8.03198 2.54982 7.55009C2.03978 7.01321 1.38104 6.64088 0.658017 6.48082C0.575765 6.48082 0.411261 6.48081 0.411261 6.39856C0.411261 6.31631 0.246757 6.31631 0.164505 6.39856H0C0 6.31631 0.246757 6.31631 0.411261 6.23406C1.2214 6.06765 1.96494 5.66729 2.54982 5.08253C3.1135 4.53672 3.46356 3.80742 3.53684 3.02622L3.6191 2.61496L3.7836 3.27298C3.93549 4.0228 4.30782 4.71018 4.85288 5.24703C5.35631 5.77707 6.02194 6.12435 6.74468 6.23406C7.07369 6.15181 7.32045 6.23406 7.32045 6.31631Z" fill="#0782C4"/>
<path fill-rule="evenodd" clip-rule="evenodd" d="M17.9308 15.1173C16.6102 15.3925 15.3844 16.0078 14.3746 16.9022C13.3647 17.7966 12.6059 18.9392 12.1732 20.2169C12.119 20.4458 12.0361 20.6669 11.9264 20.8749C11.8257 21.1946 11.7704 21.5269 11.7619 21.8619C11.7626 22.0568 11.7349 22.2508 11.6797 22.4377C11.6797 22.4377 11.5974 22.0264 11.5152 21.5329C11.4949 21.0766 11.383 20.6291 11.1862 20.2169C11.1362 20.1141 11.1082 20.0021 11.1039 19.8879C10.8196 19.2018 10.4312 18.5637 9.95238 17.9961C9.43793 17.4111 8.85842 16.8868 8.22508 16.4333C7.4702 15.8828 6.59698 15.5166 5.67526 15.364C5.0995 15.1995 4.68824 15.1173 4.77049 15.035C5.02813 14.9053 5.30652 14.8218 5.59301 14.7882C6.75908 14.4784 7.85031 13.9356 8.80085 13.1925C10.3318 11.9321 11.3305 10.1402 11.5974 8.17516C11.6797 7.7639 11.7619 7.68165 11.7619 7.7639C11.8568 8.41063 12.0223 9.04502 12.2554 9.6557L12.4199 9.98471C12.6473 10.529 12.9225 11.052 13.2425 11.5475C14.4002 13.2256 16.174 14.3786 18.1776 14.7553C18.3162 14.7747 18.4535 14.8021 18.5889 14.8376H18.9179C18.6112 14.9967 18.2754 15.0919 17.9308 15.1173Z" fill="#0782C4"/>
<path d="M36.0262 39.1351C35.4525 39.6899 34.6857 40 33.8877 40C33.0896 40 32.3228 39.6899 31.7491 39.1351L27.2252 34.5783C24.9089 36.1 22.1817 36.875 19.4113 36.7991C16.3047 36.7424 13.3014 35.6739 10.857 33.7558C10.0565 33.0783 9.31366 32.3355 8.63623 31.5349C8.5155 31.4071 8.40546 31.2695 8.30722 31.1237C7.81745 30.4436 7.37762 29.7288 6.99118 28.9851C6.39769 27.8558 6.00788 26.6307 5.83965 25.366C5.83965 25.2015 5.7574 25.1193 5.7574 25.037C5.71047 24.6548 5.68301 24.2705 5.67515 23.8855L5.5929 22.8985H11.5151V23.2275C11.5059 23.4769 11.5336 23.7264 11.5973 23.9677C11.6796 24.2145 11.6796 24.5435 11.7618 24.6258C11.8441 24.708 11.8441 24.9548 11.8441 25.1193C11.9494 25.4871 12.0871 25.8449 12.2553 26.1886C13.056 27.935 14.457 29.336 16.2034 30.1367C17.2194 30.6525 18.3573 30.8801 19.4935 30.7947C20.6671 30.9025 21.8453 30.6439 22.8659 30.0544C23.9517 29.5324 24.9068 28.7739 25.6612 27.8345C26.4155 26.8951 26.95 25.7987 27.2252 24.6258C27.4309 23.4282 27.4309 22.2043 27.2252 21.0067C26.8389 19.4846 26.0194 18.1072 24.8661 17.0415C23.7127 15.9758 22.2751 15.2674 20.7273 15.0023C20.5338 14.9869 20.3415 14.9594 20.1515 14.92H19.4113V12.0412C19.3612 11.0535 19.3888 10.0635 19.4935 9.08009C20.2073 9.03328 20.924 9.06085 21.6321 9.16235C22.6756 9.35587 23.6957 9.65914 24.6754 10.0671C26.3445 10.6985 27.8591 11.6801 29.117 12.9459C30.2848 14.1278 31.2566 15.4884 31.9959 16.9763C32.3394 17.7268 32.6415 18.4957 32.9006 19.2794C33.3231 21.0559 33.4619 22.8881 33.3119 24.708C33.2141 25.7264 32.9646 26.7245 32.5716 27.6691C32.2332 28.6191 31.7919 29.5293 31.2556 30.3834L35.7795 34.9073C36.1162 35.1387 36.3955 35.4441 36.5962 35.8C36.7969 36.1558 36.9136 36.5529 36.9374 36.9608C36.9612 37.3687 36.8915 37.7766 36.7336 38.1534C36.5757 38.5303 36.3337 38.866 36.0262 39.1351Z" fill="#0782C4"/>
</svg>
